<svg xmlns="http://www.w3.org/2000/svg" xmlns:xlink="http://www.w3.org/1999/xlink" viewBox="0 0 284.05 220.03" width="284.05" height="220.03"><svg x="82.02" y="0.00" width="120.00" height="120.00" viewBox="0 0 100.00 100.00" overflow="visible"><svg viewBox="47.36 44.16 305.28 305.28" width="100" height="100" preserveAspectRatio="xMidYMid meet"><defs><linearGradient id="skg" x1="0" y1="0" x2="1" y2="1"><stop offset="0" stop-color="#e0bd93"/><stop offset="1" stop-color="#9a5b2c"/></linearGradient><linearGradient id="skgHi" x1="0" y1="0" x2="0" y2="1"><stop offset="0" stop-color="#ffffff" stop-opacity=".45"/><stop offset=".3" stop-color="#ffffff" stop-opacity="0"/></linearGradient></defs><g fill="url(#skg)"><path d="M72.02 189.54 A128.00 128.00 0 0 1 76.52 158.30 L91.95 162.51 A112.00 112.00 0 0 0 88.02 189.85 Z"/><path d="M77.90 153.59 A128.00 128.00 0 0 1 91.01 124.88 L104.63 133.27 A112.00 112.00 0 0 0 93.16 158.39 Z"/><path d="M93.67 120.74 A128.00 128.00 0 0 1 114.34 96.89 L125.04 108.78 A112.00 112.00 0 0 0 106.96 129.65 Z"/><path d="M118.05 93.67 A128.00 128.00 0 0 1 144.60 76.61 L151.53 91.03 A112.00 112.00 0 0 0 128.29 105.96 Z"/><path d="M149.07 74.57 A128.00 128.00 0 0 1 179.35 65.68 L181.94 81.47 A112.00 112.00 0 0 0 155.44 89.25 Z"/><path d="M184.22 64.98 A128.00 128.00 0 0 1 215.78 64.98 L213.81 80.85 A112.00 112.00 0 0 0 186.19 80.85 Z"/><path d="M220.65 65.68 A128.00 128.00 0 0 1 250.93 74.57 L244.56 89.25 A112.00 112.00 0 0 0 218.06 81.47 Z"/><path d="M255.40 76.61 A128.00 128.00 0 0 1 281.95 93.67 L271.71 105.96 A112.00 112.00 0 0 0 248.47 91.03 Z"/><path d="M285.66 96.89 A128.00 128.00 0 0 1 306.33 120.74 L293.04 129.65 A112.00 112.00 0 0 0 274.96 108.78 Z"/><path d="M308.99 124.88 A128.00 128.00 0 0 1 322.10 153.59 L306.84 158.39 A112.00 112.00 0 0 0 295.37 133.27 Z"/><path d="M323.48 158.30 A128.00 128.00 0 0 1 327.98 189.54 L311.98 189.85 A112.00 112.00 0 0 0 308.05 162.51 Z"/><rect x="72.00" y="192.00" width="16.00" height="112.00" rx="0.00"/><rect x="312.00" y="192.00" width="16.00" height="112.00" rx="0.00"/><rect x="198.40" y="145.60" width="3.20" height="92.80" rx="1.60"/><path d="M186.88 145.60 A13.12 13.12 0 1 0 213.12 145.60 A13.12 13.12 0 1 0 186.88 145.60 Z M193.28 145.60 A6.72 6.72 0 1 1 206.72 145.60 A6.72 6.72 0 1 1 193.28 145.60 Z"/><path d="M186.88 192.00 A13.12 13.12 0 1 0 213.12 192.00 A13.12 13.12 0 1 0 186.88 192.00 Z M193.28 192.00 A6.72 6.72 0 1 1 206.72 192.00 A6.72 6.72 0 1 1 193.28 192.00 Z"/><circle cx="200.00" cy="238.40" r="13.12"/><rect x="65.60" y="315.20" width="268.80" height="5.44" rx="1.81"/><rect x="56.00" y="324.16" width="288.00" height="5.44" rx="1.81"/></g></svg></svg><svg x="0.00" y="142.00" width="284.05" height="50.00" viewBox="0 0 4380.00 771.00" overflow="visible"><g fill="#1c1410"><g transform="translate(-18.00,755.00) scale(1,-1)"><path transform="translate(0.00,0)" d="M570.999755859375 478.99969482421875Q570.6664428710938 534.666259765625 556.9996948242188 571.3328552246094Q543.3329467773438 607.9994506835938 515.8329467773438 626.1660766601562Q488.33294677734375 644.3327026367188 445.66656494140625 643.3327026367188H385.333984375L385.00067138671875 149.00091552734375Q385.00067138671875 122.00091552734375 384.1673278808594 98.83413696289062Q383.333984375 75.6673583984375 381.333984375 62.6673583984375Q399.667236328125 64.33404541015625 424.1673583984375 65.00070190429688Q448.66748046875 65.6673583984375 462.33392333984375 66.00067138671875V0H189.332763671875V55.00067138671875Q217.33245849609375 56.333984375 232.16583251953125 65.00042724609375Q246.99920654296875 73.6668701171875 253.166015625 94.83334350585938Q259.33282470703125 115.99981689453125 259.33282470703125 153.99993896484375L259.6661376953125 642.3327026367188L194.66729736328125 641.9993896484375Q135.66741943359375 641.3327026367188 105.0006103515625 601.9994506835938Q74.33380126953125 562.6661987304688 74.33380126953125 478.99969482421875H17.9998779296875L23.33319091796875 700H621.6669921875L627.6669921875 478.99969482421875Z"/><path transform="translate(635.00,0)" d="M328.66607666015625 0Q326.332763671875 14.99993896484375 325.6661071777344 25.666534423828125Q324.99945068359375 36.3331298828125 323.6661376953125 49.66644287109375Q289.6661376953125 15.66644287109375 251.16616821289062 -0.166778564453125Q212.66619873046875 -16 171.9996337890625 -16Q103.9998779296875 -16 67.66656494140625 20.833404541015625Q31.333251953125 57.66680908203125 31.333251953125 112.3336181640625Q31.333251953125 159.6669921875 57.16650390625 193.50033569335938Q82.999755859375 227.33367919921875 125.16632080078125 248.83367919921875Q167.3328857421875 270.33367919921875 218.1661376953125 281.5003662109375Q268.9993896484375 292.66705322265625 318.9993896484375 293.6671142578125V349.000244140625Q318.9993896484375 378.00006103515625 312.6660461425781 402.33319091796875Q306.33270263671875 426.66632080078125 289.3327941894531 441.33282470703125Q272.3328857421875 455.99932861328125 238.9998779296875 455.66595458984375Q216.666748046875 455.33258056640625 194.50033569335938 446.666015625Q172.33392333984375 437.99945068359375 159.0006103515625 419.66644287109375Q167.0006103515625 410.999755859375 169.16726684570312 400.499755859375Q171.33392333984375 389.999755859375 171.33392333984375 381.66644287109375Q171.33392333984375 364.33294677734375 157.33380126953125 344.83282470703125Q143.33367919921875 325.33270263671875 111.66680908203125 326.33270263671875Q84.6666259765625 326.9993896484375 70.33319091796875 345.1661682128906Q55.999755859375 363.33294677734375 55.999755859375 387.999755859375Q55.999755859375 425.9998779296875 83.49981689453125 454.6665954589844Q110.9998779296875 483.33331298828125 157.99993896484375 499.6666564941406Q205 516 262.66668701171875 516Q349.33343505859375 516 395.0002746582031 470.83331298828125Q440.6671142578125 425.6666259765625 440.33380126953125 326.9998779296875Q440.33380126953125 291.99993896484375 440.33380126953125 263.5002136230469Q440.33380126953125 235.00048828125 439.83380126953125 206.50076293945312Q439.33380126953125 178.00103759765625 439.33380126953125 142.66778564453125Q439.33380126953125 128.00115966796875 438.33380126953125 105.66763305664062Q437.33380126953125 83.3341064453125 435.33380126953125 61.33404541015625Q452.6671142578125 63.000732421875 471.1671447753906 63.667388916015625Q489.66717529296875 64.33404541015625 502.33367919921875 64.6673583984375V0ZM318.33270263671875 234.99969482421875Q288.33282470703125 232.66632080078125 259.1664123535156 225.49966430664062Q230 218.3330078125 207.16693115234375 205.33306884765625Q184.3338623046875 192.3331298828125 170.83404541015625 172.83328247070312Q157.334228515625 153.33343505859375 157.66754150390625 127.66705322265625Q159.0008544921875 96.667236328125 177.83407592773438 82.50070190429688Q196.66729736328125 68.33416748046875 221.6671142578125 68.33416748046875Q250.666748046875 68.33416748046875 274.1665344238281 80.16738891601562Q297.66632080078125 92.0006103515625 318.33270263671875 112.0003662109375Q317.9993896484375 122.33367919921875 317.9993896484375 133.00027465820312Q317.9993896484375 143.6668701171875 317.9993896484375 155.0001220703125Q317.9993896484375 168.66705322265625 318.1660461425781 190.00021362304688Q318.33270263671875 211.3333740234375 318.33270263671875 234.99969482421875Z"/><path transform="translate(1144.00,0)" d="M67.33306884765625 584.998779296875Q67.33306884765625 602.3321533203125 67.83306884765625 622.8323364257812Q68.33306884765625 643.33251953125 70.33306884765625 664.6658935546875Q53.66644287109375 663.6658935546875 33.49969482421875 662.9992370605469Q13.33294677734375 662.3325805664062 -0.000244140625 661.3325805664062V725.9999389648438Q45.99981689453125 725.9999389648438 75.1666259765625 730.6666259765625Q104.33343505859375 735.3333129882812 120.83355712890625 742.0Q137.33367919921875 748.6666870117188 144.33367919921875 755H190.0008544921875V460.33343505859375Q222.0009765625 489.66680908203125 258.1675720214844 502.8334045410156Q294.33416748046875 516 330.3338623046875 516Q391.6671142578125 516 439.1669921875 485.0Q486.6668701171875 454 513.6667785644531 397.0Q540.6666870117188 340 540.6666870117188 262.66668701171875Q540.6666870117188 181.0001220703125 508.6668395996094 117.83343505859375Q476.6669921875 54.666748046875 421.00042724609375 19.3333740234375Q365.3338623046875 -16 292.0003662109375 -16Q262.66717529296875 -16 221.50048828125 -4.16668701171875Q180.33380126953125 7.6666259765625 146.333740234375 44.33331298828125L118.3336181640625 0H66.66644287109375ZM190.0008544921875 152.33319091796875Q190.0008544921875 112.000244140625 203.000732421875 89.16708374023438Q216.0006103515625 66.33392333984375 236.333740234375 56.66729736328125Q256.6668701171875 47.00067138671875 277.99993896484375 46.333984375Q323.9998779296875 45.66729736328125 352.6663513183594 72.66729736328125Q381.33282470703125 99.66729736328125 394.8326416015625 145.167236328125Q408.33245849609375 190.66717529296875 408.33245849609375 244.33355712890625Q408.33245849609375 297.66644287109375 395.33258056640625 342.1662292480469Q382.33270263671875 386.666015625 354.99957275390625 413.499267578125Q327.66644287109375 440.33251953125 284.3333740234375 439.66583251953125Q256.6668701171875 438.9991455078125 231.83377075195312 426.1658935546875Q207.00067138671875 413.3326416015625 190.0008544921875 391.99945068359375Z"/><path transform="translate(1708.00,0)" d="M27.99981689453125 53.33404541015625Q56.999755859375 53.33404541015625 69.33309936523438 65.83395385742188Q81.66644287109375 78.3338623046875 84.3331298828125 101.16705322265625Q86.99981689453125 124.000244140625 86.99981689453125 153.3333740234375V584.998779296875Q86.99981689453125 602.3321533203125 87.83316040039062 622.8323364257812Q88.66650390625 643.33251953125 90.66650390625 664.6658935546875Q73.9998779296875 663.6658935546875 53.8331298828125 662.9992370605469Q33.6663818359375 662.3325805664062 20.33319091796875 661.3325805664062V725.9999389648438Q66.333251953125 725.9999389648438 95.50006103515625 730.6666259765625Q124.6668701171875 735.3333129882812 141.1669921875 742.0Q157.6671142578125 748.6666870117188 164.6671142578125 755H210.33428955078125L210.6676025390625 142.66778564453125Q210.6676025390625 126.66790771484375 209.6676025390625 104.50103759765625Q208.6676025390625 82.33416748046875 206.33428955078125 61.33404541015625Q223.0009765625 63.000732421875 240.83438110351562 63.500732421875Q258.66778564453125 64.000732421875 270.66766357421875 64.33404541015625V0H27.99981689453125Z"/><path transform="translate(1995.00,0)" d="M41.99993896484375 53.33404541015625Q70.9998779296875 53.33404541015625 82.9998779296875 65.83395385742188Q94.9998779296875 78.3338623046875 97.99990844726562 101.16705322265625Q100.99993896484375 124.000244140625 100.99993896484375 153.3333740234375V339.998779296875Q100.99993896484375 357.3321533203125 101.99993896484375 377.83233642578125Q102.99993896484375 398.33251953125 104.99993896484375 419.6658935546875Q88.33331298828125 418.6658935546875 68.16656494140625 417.9992370605469Q47.99981689453125 417.33258056640625 34.6666259765625 416.33258056640625V480.99993896484375Q80 480.99993896484375 109.33349609375 485.6666259765625Q138.6669921875 490.33331298828125 155.1671142578125 497.0Q171.667236328125 503.66668701171875 178.667236328125 510H224.33441162109375V142.66778564453125Q224.33441162109375 126.66790771484375 223.50106811523438 104.50103759765625Q222.667724609375 82.33416748046875 220.33441162109375 61.33404541015625Q236.33441162109375 63.000732421875 254.50115966796875 63.500732421875Q272.66790771484375 64.000732421875 284.66778564453125 64.33404541015625V0H41.99993896484375ZM157.3338623046875 595.666259765625Q127.66693115234375 595.666259765625 107.66680908203125 617.3330688476562Q87.66668701171875 638.9998779296875 87.66668701171875 670.0784948012408Q87.66668701171875 701.1571116727941 108.50015258789062 722.9121434828814Q129.3336181640625 744.6671752929688 157.00048828125 744.6671752929688Q185.96363321940103 744.6671752929688 205.48227437337238 722.9121434828814Q225.00091552734375 701.1571116727941 225.00091552734375 670.0784948012408Q225.00091552734375 638.9998779296875 206.16751098632812 617.3330688476562Q187.3341064453125 595.666259765625 157.3338623046875 595.666259765625Z"/><path transform="translate(2295.00,0)" d="M41.99993896484375 0V53.33404541015625Q70.9998779296875 53.33404541015625 82.9998779296875 65.83395385742188Q94.9998779296875 78.3338623046875 97.99990844726562 101.16705322265625Q100.99993896484375 124.000244140625 100.99993896484375 153.3333740234375L101.333251953125 341.3321533203125Q101.333251953125 358.66552734375 102.16659545898438 378.9989929199219Q102.99993896484375 399.33245849609375 105.333251953125 419.6658935546875Q88.6666259765625 418.6658935546875 68.4998779296875 417.9992370605469Q48.3331298828125 417.33258056640625 34.99993896484375 416.33258056640625V480.99993896484375Q80.33331298828125 480.99993896484375 109.16683959960938 485.6666259765625Q138.0003662109375 490.33331298828125 154.00051879882812 497.0Q170.00067138671875 503.66668701171875 177.00067138671875 510H219.33441162109375Q221.0010986328125 498.9998779296875 221.16775512695312 491.99993896484375Q221.33441162109375 485 222.00106811523438 477.6667785644531Q222.667724609375 470.33355712890625 224.66778564453125 456.33355712890625Q245.33441162109375 473.33349609375 271.5010681152344 486.6667785644531Q297.667724609375 500.00006103515625 324.8343200683594 508.0000305175781Q352.00091552734375 516 375.000732421875 516Q465.33416748046875 516 504.3341369628906 462.8333740234375Q543.3341064453125 409.666748046875 543.3341064453125 294.00006103515625V142.66778564453125Q543.3341064453125 126.66790771484375 542.5007629394531 104.50103759765625Q541.6674194335938 82.33416748046875 539.3341064453125 61.33404541015625Q556.0007934570312 63.000732421875 573.8341979980469 63.500732421875Q591.6676025390625 64.000732421875 603.66748046875 64.33404541015625V0H360.9996337890625V53.33404541015625Q389.99957275390625 53.33404541015625 402.3329162597656 65.83395385742188Q414.666259765625 78.3338623046875 417.6662902832031 101.16705322265625Q420.66632080078125 124.000244140625 420.66632080078125 153.3333740234375L419.9996337890625 294.666748046875Q419.66632080078125 366.66632080078125 398.16650390625 402.3327331542969Q376.66668701171875 437.9991455078125 327.6669921875 437.66583251953125Q299.00054931640625 437.33251953125 271.16741943359375 423.99932861328125Q243.33428955078125 410.6661376953125 224.33441162109375 391.33306884765625Q224.667724609375 379.33294677734375 224.667724609375 366.3328552246094Q224.667724609375 353.332763671875 224.667724609375 340.33270263671875L224.33441162109375 142.66778564453125Q224.33441162109375 126.66790771484375 223.50106811523438 104.50103759765625Q222.667724609375 82.33416748046875 220.33441162109375 61.33404541015625Q236.33441162109375 63.000732421875 254.50115966796875 63.500732421875Q272.66790771484375 64.000732421875 284.66778564453125 64.33404541015625V0Z"/><path transform="translate(2911.00,0)" d="M250.33319091796875 -16Q192.33306884765625 -16 155.83306884765625 6.00006103515625Q119.33306884765625 28.0001220703125 102.16644287109375 76.66680908203125Q84.99981689453125 125.33349609375 84.99981689453125 204.00006103515625V339.998779296875Q84.99981689453125 357.3321533203125 85.83316040039062 378.3323059082031Q86.66650390625 399.33245849609375 88.3331298828125 419.6658935546875Q71.99981689453125 418.6658935546875 51.83306884765625 418.1658935546875Q31.66632080078125 417.6658935546875 18.66644287109375 416.6658935546875V480.99993896484375H35.666015625Q91.33306884765625 480.99993896484375 121.83340454101562 490.4999694824219Q152.333740234375 500 162.66705322265625 510H209.00091552734375V204.33331298828125Q209.00091552734375 132.333740234375 228.50076293945312 97.16729736328125Q248.0006103515625 62.0008544921875 292.33349609375 62.33416748046875Q322.333251953125 62.66748046875 351.499755859375 79.833984375Q380.666259765625 97.00048828125 398.99951171875 120.000244140625V336.33233642578125Q398.99951171875 356.33221435546875 399.99951171875 377.83233642578125Q400.99951171875 399.33245849609375 403.33282470703125 419.6658935546875Q386.66619873046875 418.6658935546875 366.3327941894531 418.1658935546875Q345.9993896484375 417.6658935546875 332.66619873046875 416.6658935546875V480.99993896484375H358.9993896484375Q404.6661376953125 480.99993896484375 435.1664733886719 490.83331298828125Q465.66680908203125 500.66668701171875 476.0001220703125 510H522.333984375L522.0006713867188 151.33392333984375Q522.0006713867188 136.66729736328125 521.0006713867188 110.00070190429688Q520.0006713867188 83.3341064453125 518.0006713867188 61.33404541015625Q534.6672973632812 63.000732421875 553.6673278808594 63.667388916015625Q572.6673583984375 64.33404541015625 585.3338623046875 64.6673583984375V0H410.99957275390625Q409.33294677734375 14.333251953125 407.83294677734375 27.9998779296875Q406.33294677734375 41.66650390625 404.666259765625 54.66650390625Q373.666259765625 26.99993896484375 335.3330993652344 5.499969482421875Q296.99993896484375 -16 250.33319091796875 -16Z"/><path transform="translate(3510.00,0)" d="M41.99993896484375 0V53.33404541015625Q70.9998779296875 53.33404541015625 82.9998779296875 65.83395385742188Q94.9998779296875 78.3338623046875 97.99990844726562 101.16705322265625Q100.99993896484375 124.000244140625 100.99993896484375 153.3333740234375V341.3321533203125Q100.99993896484375 358.66552734375 101.83328247070312 378.9989929199219Q102.6666259765625 399.33245849609375 104.99993896484375 419.6658935546875Q88.33331298828125 418.6658935546875 68.16656494140625 417.9992370605469Q47.99981689453125 417.33258056640625 34.6666259765625 416.33258056640625V480.99993896484375Q80 480.99993896484375 108.83352661132812 485.6666259765625Q137.66705322265625 490.33331298828125 153.66720581054688 497.0Q169.6673583984375 503.66668701171875 176.6673583984375 510H219.0010986328125Q221.0010986328125 500 221.5010986328125 485.6666259765625Q222.0010986328125 471.333251953125 223.0010986328125 459.00006103515625Q255.6678466796875 485.00006103515625 295.0011901855469 500.5000305175781Q334.33453369140625 516 370.66778564453125 516Q418.00103759765625 516 449.33428955078125 499.0000305175781Q480.66754150390625 482.00006103515625 499.0008544921875 449.66668701171875Q534.334228515625 479.00006103515625 578.1675415039062 497.5000305175781Q622.0008544921875 516 663.0007934570312 516Q746.0006713867188 516 787.3340148925781 467.5001220703125Q828.6673583984375 419.000244140625 828.000732421875 302.6669921875L827.6674194335938 142.66778564453125Q827.6674194335938 126.66790771484375 826.8340759277344 104.50103759765625Q826.000732421875 82.33416748046875 823.6674194335938 61.33404541015625Q839.6674194335938 63.000732421875 857.8341674804688 63.500732421875Q876.0009155273438 64.000732421875 888.0007934570312 64.33404541015625V0H651.3331298828125V53.33404541015625Q676.9996337890625 53.33404541015625 687.9996032714844 65.83395385742188Q698.9995727539062 78.3338623046875 701.666259765625 101.16705322265625Q704.3329467773438 124.000244140625 704.3329467773438 153.3333740234375V302.00030517578125Q703.666259765625 373.9998779296875 680.8330688476562 404.99951171875Q657.9998779296875 435.9991455078125 615.6670532226562 436.33251953125Q588.00048828125 436.99920654296875 562.6673278808594 425.66595458984375Q537.3341674804688 414.33270263671875 517.6676025390625 397.99951171875Q522.6676025390625 379.332763671875 524.8342590332031 357.1659851074219Q527.0009155273438 334.99920654296875 527.0009155273438 310.3323974609375Q526.6676025390625 268.3328857421875 526.6676025390625 226.666748046875Q526.6676025390625 185.0006103515625 526.3342895507812 142.66778564453125Q526.3342895507812 126.66790771484375 525.5009460449219 104.50103759765625Q524.6676025390625 82.33416748046875 522.3342895507812 61.33404541015625Q538.3342895507812 63.000732421875 556.1676940917969 63.500732421875Q574.0010986328125 64.000732421875 586.6676635742188 64.33404541015625V0H346.66656494140625V53.33404541015625Q374.3331298828125 53.33404541015625 385.8331298828125 65.83395385742188Q397.3331298828125 78.3338623046875 400.1664733886719 101.16705322265625Q402.99981689453125 124.000244140625 402.99981689453125 153.3333740234375L402.66644287109375 304.0003662109375Q402.999755859375 375.99993896484375 381.66656494140625 406.66619873046875Q360.3333740234375 437.33245849609375 318.00054931640625 437.66583251953125Q291.00067138671875 437.66583251953125 266.6675109863281 425.8325500488281Q242.3343505859375 413.999267578125 224.0010986328125 396.9993896484375Q224.0010986328125 384.33270263671875 224.16775512695312 371.8327331542969Q224.33441162109375 359.332763671875 224.33441162109375 345.6661376953125V142.66778564453125Q224.33441162109375 126.66790771484375 223.50106811523438 104.50103759765625Q222.667724609375 82.33416748046875 220.33441162109375 61.33404541015625Q236.33441162109375 63.000732421875 252.83444213867188 63.500732421875Q269.33447265625 64.000732421875 281.3343505859375 64.33404541015625V0Z"/></g></g></svg><svg x="66.87" y="203.00" width="150.30" height="17.03" viewBox="0 0 9054.70 1026.03" overflow="visible"><g fill="#1c1410"><g transform="translate(-40.60,755.00) scale(1,-1)"><path transform="translate(0.00,0)" d="M555.999755859375 700 551.93310546875 523.733642578125H516.80029296875Q519.80029296875 582.467041015625 503.2003173828125 612.8004150390625Q486.600341796875 643.1337890625 456.7669677734375 653.567138671875Q426.93359375 664.00048828125 389.666748046875 663.00048828125L306.999267578125 661.067138671875Q271.065673828125 660.1337890625 254.63232421875 647.6336669921875Q238.198974609375 635.133544921875 233.3990478515625 610.10009765625Q228.59912109375 585.066650390625 225.665771484375 544.199951171875L216.799072265625 384.866455078125L291.79833984375 383.93310546875Q330.9990234375 384.8662109375 356.199462890625 390.5660400390625Q381.39990234375 396.265869140625 394.0001220703125 415.9326171875Q406.600341796875 435.599365234375 408.467041015625 477.466552734375H444.399658203125L433.3330078125 257.80029296875H398.133544921875Q400.133544921875 301.6669921875 389.0335693359375 320.6669921875Q377.93359375 339.6669921875 352.2001953125 343.7003173828125Q326.466796875 347.733642578125 284.533203125 345.80029296875L214.665771484375 342.93359375L202.86572265625 118.265869140625Q201.86572265625 91.265869140625 199.8323974609375 71.9326171875Q197.799072265625 52.599365234375 195.799072265625 39.599365234375L383 42.3994140625Q426.06689453125 43.332763671875 458.7669677734375 56.832763671875Q491.467041015625 70.332763671875 510.967041015625 104.1661376953125Q530.467041015625 137.99951171875 533.467041015625 196.666259765625H569.599853515625L553.533203125 0H40.60009765625L42.7333984375 35.199462890625Q79.6669921875 37.1328125 94.2669677734375 51.9329833984375Q108.866943359375 66.733154296875 112.3001708984375 93.5999755859375Q115.7333984375 120.466796875 117.7333984375 155.800048828125L141.466796875 584.5341796875Q142.533447265625 605.000732421875 144.5667724609375 623.9339599609375Q146.60009765625 642.8671875 148.60009765625 657.73388671875Q130.7333984375 656.73388671875 111.8668212890625 655.7672119140625Q93.000244140625 654.800537109375 75.466796875 653.800537109375L77.60009765625 700Z"/><path transform="translate(649.00,0)" d="M362.86669921875 511Q407.000244140625 511 435.233642578125 483.43310546875Q463.467041015625 455.8662109375 475.30029296875 410.7991943359375Q487.133544921875 365.732177734375 483.9666748046875 313.1318359375Q480.7998046875 260.531494140625 462.1328125 209.53125Q448.132568359375 168.7314453125 424.0657958984375 129.7984619140625Q399.9990234375 90.865478515625 368.299072265625 58.9324951171875Q336.59912109375 26.99951171875 299.6993408203125 7.999755859375Q262.799560546875 -11 222.199951171875 -11Q180.933349609375 -11 155.7333984375 6.5999755859375Q130.533447265625 24.199951171875 119.400146484375 54.0665283203125Q108.266845703125 83.93310546875 107.33349609375 118.8662109375Q106.400146484375 159.7998046875 109.3668212890625 202.2332763671875Q112.33349609375 244.666748046875 116.266845703125 284.8668212890625Q120.2001953125 325.06689453125 123.633544921875 358.4002685546875Q127.06689453125 391.733642578125 127.06689453125 413.467041015625Q127.06689453125 431.400390625 122.0335693359375 444.300537109375Q117.000244140625 457.20068359375 99.86669921875 457.20068359375Q84.199951171875 457.20068359375 65.66650390625 435.533935546875Q47.133056640625 413.8671875 33.19970703125 360.467041015625L3.466796875 368.06689453125Q6.533447265625 386.266845703125 15.2333984375 410.0001220703125Q23.933349609375 433.7333984375 39.199951171875 456.8333740234375Q54.466552734375 479.933349609375 76.733154296875 495.0Q98.999755859375 510.066650390625 129.266357421875 511Q157.066162109375 511.933349609375 175.2327880859375 500.60009765625Q193.3994140625 489.266845703125 202.7994384765625 467.4669189453125Q212.199462890625 445.6669921875 213.1328125 414.600341796875Q213.1328125 384.467041015625 210.6328125 344.1336669921875Q208.1328125 303.80029296875 204.5994873046875 261.56689453125Q201.066162109375 219.33349609375 198.0994873046875 182.1334228515625Q195.1328125 144.933349609375 194.199462890625 119.13330078125Q194.199462890625 103.533203125 196.2327880859375 85.8331298828125Q198.26611328125 68.133056640625 208.0994873046875 56.266357421875Q217.932861328125 44.399658203125 241.399658203125 44.399658203125Q266.532958984375 44.46630859375 293.5662841796875 59.799560546875Q320.599609375 75.1328125 345.96630859375 100.79931640625Q371.3330078125 126.4658203125 391.3997802734375 159.89892578125Q411.466552734375 193.33203125 421.7333984375 230.3984375Q427.33349609375 249.798583984375 431.866943359375 280.89892578125Q436.400390625 311.999267578125 434.76708984375 344.899658203125Q433.1337890625 377.800048828125 422.5670166015625 404.5003662109375Q412.000244140625 431.20068359375 388.333251953125 440.867431640625Q382.13330078125 428.267333984375 371.566650390625 422.3006591796875Q361 416.333984375 347.933349609375 416.333984375Q334.466796875 416.333984375 320.000244140625 426.6339111328125Q305.53369140625 436.933837890625 304.600341796875 459.6669921875Q304.600341796875 469.93359375 310.2003173828125 481.766845703125Q315.80029296875 493.60009765625 328.6002197265625 502.300048828125Q341.400146484375 511 362.86669921875 511Z"/><path transform="translate(1205.00,0)" d="M281.86669921875 511Q318.39990234375 511 350.533203125 499.86669921875Q382.66650390625 488.7333984375 402.599853515625 463.533447265625Q422.533203125 438.33349609375 422.533203125 395.266845703125Q422.533203125 354.266845703125 394.7664794921875 324.3668212890625Q366.999755859375 294.466796875 322.3663330078125 275.0667724609375Q277.73291015625 255.666748046875 226.99951171875 243.7000732421875Q176.26611328125 231.7333984375 129.466064453125 226.666748046875Q129.466064453125 165 142.03271484375 123.7664794921875Q154.599365234375 82.532958984375 179.332763671875 62.1661376953125Q204.066162109375 41.79931640625 241.866455078125 41.79931640625Q270.066650390625 41.79931640625 299.166748046875 54.3660888671875Q328.266845703125 66.932861328125 355.06689453125 93.0662841796875Q381.866943359375 119.19970703125 403.600341796875 161.133056640625L438.13330078125 141.599853515625Q410.13330078125 88.7333984375 377.933349609375 54.666748046875Q345.7333984375 20.60009765625 307.7333984375 4.800048828125Q269.7333984375 -11 224.199951171875 -11Q129.39990234375 -11.066650390625 83.800048828125 48.0667724609375Q38.2001953125 107.2001953125 38.2001953125 205.13330078125Q38.2001953125 262.466796875 53.2001953125 317.33349609375Q68.2001953125 372.2001953125 98.2335205078125 415.8668212890625Q128.266845703125 459.533447265625 174.400146484375 485.2667236328125Q220.533447265625 511 281.86669921875 511ZM268.066650390625 474.8671875Q222.866455078125 474.8671875 193.9329833984375 444.333740234375Q164.99951171875 413.80029296875 149.7994384765625 365.6334228515625Q134.599365234375 317.466552734375 130.599365234375 264.599609375Q183.666015625 271.799560546875 230.599609375 289.73291015625Q277.533203125 307.666259765625 307.4334716796875 335.7330322265625Q337.333740234375 363.7998046875 337.26708984375 400.86669921875Q337.200439453125 432.400146484375 319.9337158203125 453.6336669921875Q302.6669921875 474.8671875 268.066650390625 474.8671875Z"/><path transform="translate(1712.00,0)" d="M100.400146484375 0Q99.33349609375 7.93310546875 99.3001708984375 13.633056640625Q99.266845703125 19.3330078125 99.266845703125 27.46630859375Q99.266845703125 44.73291015625 100.3668212890625 68.6328125Q101.466796875 92.53271484375 105.0001220703125 131.199462890625Q108.533447265625 169.8662109375 115.33349609375 230.86669921875Q122.2001953125 293.933837890625 126.2335205078125 326.9005126953125Q130.266845703125 359.8671875 132.3001708984375 376.0003662109375Q134.33349609375 392.133544921875 134.33349609375 402.266845703125Q135.266845703125 422.06689453125 131.7001953125 440.1004638671875Q128.133544921875 458.134033203125 108.199951171875 458.134033203125Q92.533203125 458.134033203125 72.133056640625 436.46728515625Q51.73291015625 414.800537109375 36.8662109375 362.333740234375L7.066650390625 369.000244140625Q10.199951171875 387.2001953125 19.6666259765625 410.9334716796875Q29.13330078125 434.666748046875 45.13330078125 457.7667236328125Q61.13330078125 480.86669921875 84.13330078125 495.933349609375Q107.13330078125 511 137.333251953125 511Q181.466796875 511 197.199951171875 480.7998046875Q212.93310546875 450.599609375 211.06640625 398.532958984375Q210.133056640625 376.932861328125 205.766357421875 350.7327880859375Q201.399658203125 324.53271484375 196.399658203125 295.53271484375H199.266357421875Q228.133056640625 381.799560546875 259.43310546875 428.2330322265625Q290.733154296875 474.66650390625 322.9332275390625 492.833251953125Q355.13330078125 511 386.60009765625 511Q417.13330078125 511 437.333251953125 495.166748046875Q457.533203125 479.33349609375 457.533203125 451.80029296875Q457.533203125 433.26708984375 444.63330078125 417.8671875Q431.7333984375 402.46728515625 410.133544921875 402.46728515625Q391.866943359375 402.46728515625 378.600341796875 413.667236328125Q365.333740234375 424.8671875 363.53369140625 445.1337890625Q336.266845703125 450.8671875 310.36669921875 427.0338134765625Q284.466552734375 403.200439453125 261.499755859375 359.1669921875Q238.532958984375 315.133544921875 221.3662109375 260.7333984375Q204.199462890625 206.333251953125 194.3660888671875 149.93310546875Q184.53271484375 93.532958984375 184.53271484375 44.932861328125Q184.53271484375 30.066162109375 185.0660400390625 21.499755859375Q185.599365234375 12.933349609375 186.599365234375 0Z"/><path transform="translate(2197.00,0)" d="M67.932373046875 -271Q33.132568359375 -269.13330078125 11.8992919921875 -251.3333740234375Q-9.333984375 -233.533447265625 -9.333984375 -207.000244140625Q-9.333984375 -183.400390625 5.0992431640625 -171.4005126953125Q19.532470703125 -159.400634765625 33.198974609375 -159.400634765625Q78.732177734375 -159.400634765625 77.398681640625 -211.533935546875Q83.132080078125 -214.400634765625 87.998779296875 -216.267333984375Q92.865478515625 -218.134033203125 98.598876953125 -218.134033203125Q120.265625 -219.0673828125 143.432373046875 -202.333984375Q166.59912109375 -185.6005859375 187.7991943359375 -160.5338134765625Q208.999267578125 -135.467041015625 225.29931640625 -111.30029296875Q241.599365234375 -87.133544921875 249.466064453125 -74.06689453125Q240.599365234375 -16.7333984375 228.332763671875 44.36669921875Q216.066162109375 105.466796875 200.23291015625 166.7001953125Q184.399658203125 227.93359375 165.6663818359375 285.1669921875Q146.93310546875 342.400390625 126.06640625 392.933837890625Q119.06640625 409.8671875 108.0330810546875 427.933837890625Q96.999755859375 446.00048828125 77.19970703125 444.1337890625Q58.599609375 442.26708984375 48.8330078125 415.2001953125Q39.06640625 388.13330078125 42.466552734375 342.066650390625L8.866943359375 338.866455078125Q6.2001953125 365.533203125 9.10009765625 395.333251953125Q12 425.13330078125 22.4998779296875 451.566650390625Q32.999755859375 478 52.5662841796875 494.5Q72.1328125 511 103.732666015625 511Q137.666015625 511 159.29931640625 493.1666259765625Q180.9326171875 475.333251953125 194.632568359375 449.466552734375Q208.33251953125 423.599853515625 217.399169921875 398.599853515625Q236.06591796875 348.73291015625 254.19921875 283.53271484375Q272.33251953125 218.33251953125 286.165771484375 150.165771484375Q299.9990234375 81.9990234375 307.265625 22.59912109375H309.198974609375Q336.732421875 71.399169921875 361.9326171875 129.332763671875Q387.1328125 187.266357421875 403.5662841796875 247.2667236328125Q419.999755859375 307.26708984375 420.133056640625 359.867431640625Q420.19970703125 383.934326171875 415.9329833984375 403.2342529296875Q411.666259765625 422.5341796875 405.3330078125 430.80078125Q401.3330078125 427.93408203125 395.0662841796875 426.5340576171875Q388.799560546875 425.134033203125 381.066162109375 425.134033203125Q362.599609375 425.134033203125 351.133056640625 437.0006103515625Q339.66650390625 448.8671875 339.66650390625 465.400390625Q339.66650390625 488.266845703125 354.6663818359375 499.6334228515625Q369.666259765625 511 388.1328125 511Q419.53271484375 511 436.8992919921875 491.86669921875Q454.265869140625 472.7333984375 461.9324951171875 443.533447265625Q469.59912109375 414.33349609375 469.59912109375 382.2001953125Q469.59912109375 317.733154296875 450.932373046875 249.266357421875Q432.265625 180.799560546875 402.098876953125 113.6995849609375Q371.93212890625 46.599609375 337.93212890625 -15.733642578125Q288.73193359375 -104.6005859375 243.1986083984375 -161.9671630859375Q197.665283203125 -219.333740234375 154.132080078125 -245.633544921875Q110.598876953125 -271.933349609375 67.932373046875 -271Z"/><path transform="translate(3037.00,0)" d="M277.666748046875 511Q320.86669921875 511 355.0333251953125 495.5333251953125Q389.199951171875 480.066650390625 408.833251953125 453.566650390625Q428.466552734375 427.066650390625 428.466552734375 393.800048828125Q428.466552734375 371.266845703125 417.0333251953125 357.4002685546875Q405.60009765625 343.53369140625 385.000244140625 343.467041015625Q360.333740234375 342.467041015625 350.5338134765625 357.9002685546875Q340.73388671875 373.33349609375 340.73388671875 384.7333984375Q340.73388671875 393.7333984375 343.23388671875 403.8333740234375Q345.73388671875 413.933349609375 353.533935546875 423Q348.6005859375 449.733642578125 326.7337646484375 461.833740234375Q304.866943359375 473.933837890625 276.60009765625 473.933837890625Q234.333251953125 473.933837890625 205.8997802734375 451.0338134765625Q177.46630859375 428.1337890625 160.8328857421875 391.400390625Q144.199462890625 354.6669921875 136.8660888671875 312.56689453125Q129.53271484375 270.466796875 129.466064453125 231.13330078125Q129.332763671875 162.19970703125 144.5994873046875 120.3328857421875Q159.8662109375 78.466064453125 187.3330078125 59.732666015625Q214.7998046875 40.999267578125 248.86669921875 40.865966796875Q274.400146484375 40.79931640625 302.133544921875 51.966064453125Q329.866943359375 63.1328125 355.80029296875 90.299560546875Q381.733642578125 117.46630859375 400.80029296875 165.399658203125L437.2666015625 147.66650390625Q412.066650390625 89.199951171875 378.933349609375 54.5333251953125Q345.800048828125 19.86669921875 308.2000732421875 4.433349609375Q270.60009765625 -11 231.400146484375 -11Q143.400146484375 -10.933349609375 90.8001708984375 42.5333251953125Q38.2001953125 96 38.2001953125 207.933349609375Q38.2001953125 256.86669921875 52.266845703125 309.86669921875Q66.33349609375 362.86669921875 95.4334716796875 408.4000244140625Q124.533447265625 453.933349609375 170.0667724609375 482.4666748046875Q215.60009765625 511 277.666748046875 511Z"/><path transform="translate(3540.00,0)" d="M285.533447265625 511Q339.666748046875 511 382.8333740234375 485.4666748046875Q426 459.933349609375 451.13330078125 410.86669921875Q476.2666015625 361.800048828125 476.2666015625 291.7333984375Q476.2666015625 211.800048828125 447.1666259765625 142.36669921875Q418.066650390625 72.933349609375 363.4666748046875 30.9666748046875Q308.86669921875 -11 230.86669921875 -11Q164.800048828125 -11 122.1334228515625 19.0333251953125Q79.466796875 49.066650390625 58.8668212890625 100.13330078125Q38.266845703125 151.199951171875 38.266845703125 213.199951171875Q38.266845703125 294.13330078125 67.83349609375 362.066650390625Q97.400146484375 430 152.966796875 470.5Q208.533447265625 511 285.533447265625 511ZM270.533447265625 472.067138671875Q227.466552734375 473.067138671875 196.0997314453125 442.76708984375Q164.73291015625 412.467041015625 147.566162109375 360.866943359375Q130.3994140625 309.266845703125 129.466064453125 245.86669921875Q128.53271484375 212.13330078125 133.4327392578125 174.466552734375Q138.332763671875 136.7998046875 150.6328125 104.0997314453125Q162.932861328125 71.399658203125 184.96630859375 50.599609375Q206.999755859375 29.799560546875 240.333251953125 28.8662109375Q279.400146484375 27.932861328125 306.733642578125 50.2662353515625Q334.067138671875 72.599609375 350.7005615234375 108.2996826171875Q367.333984375 143.999755859375 375.634033203125 184.599853515625Q383.93408203125 225.199951171875 384.93408203125 260.86669921875Q385.93408203125 295.33349609375 381.5340576171875 332.000244140625Q377.134033203125 368.6669921875 364.46728515625 400.467041015625Q351.800537109375 432.26708984375 329.26708984375 451.700439453125Q306.733642578125 471.1337890625 270.533447265625 472.067138671875Z"/><path transform="translate(4091.00,0)" d="M732.2001953125 -11Q684.6669921875 -11 667.967041015625 14.333251953125Q651.26708984375 39.66650390625 651.26708984375 86.133056640625Q651.26708984375 114.266357421875 656.6671142578125 152.2330322265625Q662.067138671875 190.19970703125 668.9005126953125 232.93310546875Q675.73388671875 275.66650390625 681.1339111328125 319.0333251953125Q686.533935546875 362.400146484375 686.533935546875 401.26708984375Q686.533935546875 413.467041015625 682.6339111328125 427.1671142578125Q678.73388671875 440.8671875 669.00048828125 450.9339599609375Q659.26708984375 461.000732421875 639.866943359375 461.000732421875Q612.533447265625 461.000732421875 586.066650390625 435.3006591796875Q559.599853515625 409.6005859375 536.9664306640625 366.1004638671875Q514.3330078125 322.600341796875 497.099609375 269.6668701171875Q479.8662109375 216.7333984375 469.99951171875 160.8665771484375Q460.1328125 104.999755859375 460.1328125 54.599609375Q460.1328125 39.73291015625 460.6661376953125 26.56640625Q461.199462890625 13.39990234375 462.199462890625 0H375.2001953125Q374.133544921875 7.93310546875 374.1002197265625 14.299560546875Q374.06689453125 20.666015625 374.06689453125 28.732666015625Q374.06689453125 67.06591796875 379.43359375 118.5660400390625Q384.80029296875 170.066162109375 392.100341796875 224.2330322265625Q399.400390625 278.39990234375 404.76708984375 326.466796875Q410.1337890625 374.53369140625 409.200439453125 405.00048828125Q408.26708984375 422.400390625 399.4337158203125 441.7005615234375Q390.600341796875 461.000732421875 362.533447265625 461.000732421875Q335.199951171875 461.000732421875 309.16650390625 435.267333984375Q283.133056640625 409.533935546875 260.46630859375 365.9671630859375Q237.799560546875 322.400390625 220.0328369140625 269.43359375Q202.26611328125 216.466796875 192.3660888671875 160.566650390625Q182.466064453125 104.66650390625 182.466064453125 54.266357421875Q182.466064453125 39.399658203125 182.9993896484375 26.16650390625Q183.53271484375 12.933349609375 184.53271484375 0H97.60009765625Q96.533447265625 7.93310546875 96.5001220703125 13.633056640625Q96.466796875 19.3330078125 96.466796875 27.46630859375Q96.466796875 44.666259765625 98.0001220703125 67.432861328125Q99.533447265625 90.199462890625 104.0001220703125 127.299560546875Q108.466796875 164.399658203125 115.266845703125 225.266845703125Q122.000244140625 282.267333984375 125.9669189453125 314.867431640625Q129.93359375 347.467529296875 132.000244140625 365.4007568359375Q134.06689453125 383.333984375 134.6668701171875 393.4005126953125Q135.266845703125 403.467041015625 135.266845703125 414.400390625Q135.266845703125 432.333740234375 130.3001708984375 445.23388671875Q125.33349609375 458.134033203125 109.13330078125 458.134033203125Q93.466552734375 458.134033203125 73.06640625 436.46728515625Q52.666259765625 414.800537109375 37.799560546875 362.333740234375L8 369.000244140625Q11.13330078125 387.2001953125 20.5999755859375 410.9334716796875Q30.066650390625 434.666748046875 46.066650390625 457.7667236328125Q62.066650390625 480.86669921875 85.066650390625 495.933349609375Q108.066650390625 511 138.2666015625 511Q170.533447265625 511 186.7333984375 495.0665283203125Q202.933349609375 479.133056640625 208.8665771484375 453.099609375Q214.7998046875 427.066162109375 212.93310546875 395.73291015625Q211.999755859375 368.332763671875 207.19970703125 340.9324951171875Q202.399658203125 313.5322265625 198.532958984375 292.798828125H201.399658203125Q232.866455078125 381.732666015625 264.233154296875 428.73291015625Q295.599853515625 475.733154296875 326.16650390625 493.3665771484375Q356.733154296875 511 383.7998046875 511Q423.333251953125 511 446.699951171875 492.833251953125Q470.066650390625 474.66650390625 480.13330078125 448.66650390625Q490.199951171875 422.66650390625 490.199951171875 396.933349609375Q490.199951171875 370.266357421875 486.466552734375 350.99951171875Q482.733154296875 331.732666015625 474.19970703125 295.598876953125H477.06640625Q509.466552734375 384.53271484375 541.63330078125 431.0662841796875Q573.800048828125 477.599853515625 604.7333984375 494.2999267578125Q635.666748046875 511 662.7333984375 511Q702.933349609375 511 726.1666259765625 492.933349609375Q749.39990234375 474.86669921875 759.099853515625 445.033447265625Q768.7998046875 415.2001953125 768.7998046875 379.400390625Q768.7998046875 325.666748046875 760.93310546875 269.0665283203125Q753.06640625 212.46630859375 744.69970703125 164.2662353515625Q736.3330078125 116.066162109375 736.3330078125 86.532958984375Q736.3330078125 68.666259765625 740.8663330078125 55.26611328125Q745.399658203125 41.865966796875 762.533203125 41.865966796875Q779.13330078125 41.865966796875 799.533447265625 63.0660400390625Q819.93359375 84.26611328125 834.80029296875 137.666259765625L864.599853515625 130.06640625Q861.533203125 112.7998046875 851.39990234375 88.599853515625Q841.2666015625 64.39990234375 825.0999755859375 41.7666015625Q808.933349609375 19.13330078125 785.7000732421875 4.066650390625Q762.466796875 -11 732.2001953125 -11Z"/><path transform="translate(4997.00,0)" d="M732.2001953125 -11Q684.6669921875 -11 667.967041015625 14.333251953125Q651.26708984375 39.66650390625 651.26708984375 86.133056640625Q651.26708984375 114.266357421875 656.6671142578125 152.2330322265625Q662.067138671875 190.19970703125 668.9005126953125 232.93310546875Q675.73388671875 275.66650390625 681.1339111328125 319.0333251953125Q686.533935546875 362.400146484375 686.533935546875 401.26708984375Q686.533935546875 413.467041015625 682.6339111328125 427.1671142578125Q678.73388671875 440.8671875 669.00048828125 450.9339599609375Q659.26708984375 461.000732421875 639.866943359375 461.000732421875Q612.533447265625 461.000732421875 586.066650390625 435.3006591796875Q559.599853515625 409.6005859375 536.9664306640625 366.1004638671875Q514.3330078125 322.600341796875 497.099609375 269.6668701171875Q479.8662109375 216.7333984375 469.99951171875 160.8665771484375Q460.1328125 104.999755859375 460.1328125 54.599609375Q460.1328125 39.73291015625 460.6661376953125 26.56640625Q461.199462890625 13.39990234375 462.199462890625 0H375.2001953125Q374.133544921875 7.93310546875 374.1002197265625 14.299560546875Q374.06689453125 20.666015625 374.06689453125 28.732666015625Q374.06689453125 67.06591796875 379.43359375 118.5660400390625Q384.80029296875 170.066162109375 392.100341796875 224.2330322265625Q399.400390625 278.39990234375 404.76708984375 326.466796875Q410.1337890625 374.53369140625 409.200439453125 405.00048828125Q408.26708984375 422.400390625 399.4337158203125 441.7005615234375Q390.600341796875 461.000732421875 362.533447265625 461.000732421875Q335.199951171875 461.000732421875 309.16650390625 435.267333984375Q283.133056640625 409.533935546875 260.46630859375 365.9671630859375Q237.799560546875 322.400390625 220.0328369140625 269.43359375Q202.26611328125 216.466796875 192.3660888671875 160.566650390625Q182.466064453125 104.66650390625 182.466064453125 54.266357421875Q182.466064453125 39.399658203125 182.9993896484375 26.16650390625Q183.53271484375 12.933349609375 184.53271484375 0H97.60009765625Q96.533447265625 7.93310546875 96.5001220703125 13.633056640625Q96.466796875 19.3330078125 96.466796875 27.46630859375Q96.466796875 44.666259765625 98.0001220703125 67.432861328125Q99.533447265625 90.199462890625 104.0001220703125 127.299560546875Q108.466796875 164.399658203125 115.266845703125 225.266845703125Q122.000244140625 282.267333984375 125.9669189453125 314.867431640625Q129.93359375 347.467529296875 132.000244140625 365.4007568359375Q134.06689453125 383.333984375 134.6668701171875 393.4005126953125Q135.266845703125 403.467041015625 135.266845703125 414.400390625Q135.266845703125 432.333740234375 130.3001708984375 445.23388671875Q125.33349609375 458.134033203125 109.13330078125 458.134033203125Q93.466552734375 458.134033203125 73.06640625 436.46728515625Q52.666259765625 414.800537109375 37.799560546875 362.333740234375L8 369.000244140625Q11.13330078125 387.2001953125 20.5999755859375 410.9334716796875Q30.066650390625 434.666748046875 46.066650390625 457.7667236328125Q62.066650390625 480.86669921875 85.066650390625 495.933349609375Q108.066650390625 511 138.2666015625 511Q170.533447265625 511 186.7333984375 495.0665283203125Q202.933349609375 479.133056640625 208.8665771484375 453.099609375Q214.7998046875 427.066162109375 212.93310546875 395.73291015625Q211.999755859375 368.332763671875 207.19970703125 340.9324951171875Q202.399658203125 313.5322265625 198.532958984375 292.798828125H201.399658203125Q232.866455078125 381.732666015625 264.233154296875 428.73291015625Q295.599853515625 475.733154296875 326.16650390625 493.3665771484375Q356.733154296875 511 383.7998046875 511Q423.333251953125 511 446.699951171875 492.833251953125Q470.066650390625 474.66650390625 480.13330078125 448.66650390625Q490.199951171875 422.66650390625 490.199951171875 396.933349609375Q490.199951171875 370.266357421875 486.466552734375 350.99951171875Q482.733154296875 331.732666015625 474.19970703125 295.598876953125H477.06640625Q509.466552734375 384.53271484375 541.63330078125 431.0662841796875Q573.800048828125 477.599853515625 604.7333984375 494.2999267578125Q635.666748046875 511 662.7333984375 511Q702.933349609375 511 726.1666259765625 492.933349609375Q749.39990234375 474.86669921875 759.099853515625 445.033447265625Q768.7998046875 415.2001953125 768.7998046875 379.400390625Q768.7998046875 325.666748046875 760.93310546875 269.0665283203125Q753.06640625 212.46630859375 744.69970703125 164.2662353515625Q736.3330078125 116.066162109375 736.3330078125 86.532958984375Q736.3330078125 68.666259765625 740.8663330078125 55.26611328125Q745.399658203125 41.865966796875 762.533203125 41.865966796875Q779.13330078125 41.865966796875 799.533447265625 63.0660400390625Q819.93359375 84.26611328125 834.80029296875 137.666259765625L864.599853515625 130.06640625Q861.533203125 112.7998046875 851.39990234375 88.599853515625Q841.2666015625 64.39990234375 825.0999755859375 41.7666015625Q808.933349609375 19.13330078125 785.7000732421875 4.066650390625Q762.466796875 -11 732.2001953125 -11Z"/><path transform="translate(5903.00,0)" d="M134.532958984375 511Q177.199462890625 511 198.1661376953125 482.300048828125Q219.1328125 453.60009765625 219.1328125 406.2001953125Q219.1328125 376.60009765625 213.6661376953125 337.9334716796875Q208.199462890625 299.266845703125 200.332763671875 255.2001953125Q192.466064453125 211.133544921875 186.9993896484375 167.1334228515625Q181.53271484375 123.13330078125 181.53271484375 82.799560546875Q181.53271484375 63.066162109375 188.8660888671875 52.466064453125Q196.199462890625 41.865966796875 211.46630859375 41.865966796875Q228.133056640625 41.865966796875 248.0665283203125 63.53271484375Q268 85.199462890625 282.86669921875 137.666259765625L312.599609375 130.999755859375Q308.599609375 109.999755859375 298.96630859375 85.3331298828125Q289.3330078125 60.66650390625 274.06640625 38.966552734375Q258.7998046875 17.2666015625 236.966552734375 3.13330078125Q215.13330078125 -11 186.7333984375 -11Q140.133544921875 -11 118.2335205078125 13.39990234375Q96.33349609375 37.7998046875 96.33349609375 84.266357421875Q96.33349609375 127.2666015625 102.266845703125 168.6666259765625Q108.2001953125 210.066650390625 115.633544921875 250.6666259765625Q123.06689453125 291.2666015625 129.000244140625 331.9666748046875Q134.93359375 372.666748046875 134.93359375 414.400390625Q134.93359375 427.6669921875 129.4669189453125 442.9005126953125Q124.000244140625 458.134033203125 107.7333984375 458.134033203125Q92.066650390625 458.134033203125 71.66650390625 436.46728515625Q51.266357421875 414.800537109375 36.399658203125 362.333740234375L6.666748046875 369.000244140625Q9.7333984375 387.2001953125 18.933349609375 410.9334716796875Q28.13330078125 434.666748046875 43.89990234375 457.7667236328125Q59.66650390625 480.86669921875 81.9664306640625 495.933349609375Q104.266357421875 511 134.532958984375 511ZM190.066650390625 729.3994140625Q213.733154296875 729.3994140625 229.0997314453125 713.3328857421875Q244.46630859375 697.266357421875 244.3330078125 670.66650390625Q244.266357421875 645.066650390625 227.866455078125 629.033447265625Q211.466552734375 613.000244140625 188.7333984375 613.000244140625Q165.93359375 613.000244140625 150.100341796875 629.033447265625Q134.26708984375 645.066650390625 134.333740234375 670.66650390625Q134.467041015625 697.266357421875 151.000244140625 713.3328857421875Q167.533447265625 729.3994140625 190.066650390625 729.3994140625Z"/><path transform="translate(6258.00,0)" d="M219.3994140625 641.66650390625 201.26611328125 500H358L354.800048828125 459.933837890625L197.1328125 457.933837890625Q193.1328125 416.333740234375 187.6661376953125 372.03369140625Q182.199462890625 327.733642578125 178.2327880859375 284.0335693359375Q174.26611328125 240.33349609375 171.2994384765625 200.433349609375Q168.332763671875 160.533203125 168.332763671875 128.599609375Q168.332763671875 109.99951171875 170.8660888671875 89.832763671875Q173.3994140625 69.666015625 183.3994140625 56.3326416015625Q193.3994140625 42.999267578125 215.3994140625 42.999267578125Q225.26611328125 42.999267578125 239.832763671875 47.0325927734375Q254.3994140625 51.06591796875 272.3994140625 65.9326171875Q290.3994140625 80.79931640625 309.1328125 112.53271484375L336.799072265625 94.532958984375Q307.4658203125 42.66650390625 272.9327392578125 15.833251953125Q238.399658203125 -11 189.866455078125 -11Q149.800048828125 -11 126.966796875 5.9332275390625Q104.133544921875 22.866455078125 94.2001953125 50.5662841796875Q84.266845703125 78.26611328125 84.33349609375 109.9326171875Q84.466796875 147.666015625 87.466796875 201.6328125Q90.466796875 255.599609375 96.400146484375 321.099853515625Q102.33349609375 386.60009765625 110.133544921875 456.933837890625L21.7333984375 455.933837890625L25.13330078125 500Q94.466552734375 500 127.6331787109375 537.13330078125Q160.7998046875 574.2666015625 179.466552734375 641.66650390625Z"/><path transform="translate(6947.00,0)" d="M219.3994140625 641.66650390625 201.26611328125 500H358L354.800048828125 459.933837890625L197.1328125 457.933837890625Q193.1328125 416.333740234375 187.6661376953125 372.03369140625Q182.199462890625 327.733642578125 178.2327880859375 284.0335693359375Q174.26611328125 240.33349609375 171.2994384765625 200.433349609375Q168.332763671875 160.533203125 168.332763671875 128.599609375Q168.332763671875 109.99951171875 170.8660888671875 89.832763671875Q173.3994140625 69.666015625 183.3994140625 56.3326416015625Q193.3994140625 42.999267578125 215.3994140625 42.999267578125Q225.26611328125 42.999267578125 239.832763671875 47.0325927734375Q254.3994140625 51.06591796875 272.3994140625 65.9326171875Q290.3994140625 80.79931640625 309.1328125 112.53271484375L336.799072265625 94.532958984375Q307.4658203125 42.66650390625 272.9327392578125 15.833251953125Q238.399658203125 -11 189.866455078125 -11Q149.800048828125 -11 126.966796875 5.9332275390625Q104.133544921875 22.866455078125 94.2001953125 50.5662841796875Q84.266845703125 78.26611328125 84.33349609375 109.9326171875Q84.466796875 147.666015625 87.466796875 201.6328125Q90.466796875 255.599609375 96.400146484375 321.099853515625Q102.33349609375 386.60009765625 110.133544921875 456.933837890625L21.7333984375 455.933837890625L25.13330078125 500Q94.466552734375 500 127.6331787109375 537.13330078125Q160.7998046875 574.2666015625 179.466552734375 641.66650390625Z"/><path transform="translate(7343.00,0)" d="M281.86669921875 511Q318.39990234375 511 350.533203125 499.86669921875Q382.66650390625 488.7333984375 402.599853515625 463.533447265625Q422.533203125 438.33349609375 422.533203125 395.266845703125Q422.533203125 354.266845703125 394.7664794921875 324.3668212890625Q366.999755859375 294.466796875 322.3663330078125 275.0667724609375Q277.73291015625 255.666748046875 226.99951171875 243.7000732421875Q176.26611328125 231.7333984375 129.466064453125 226.666748046875Q129.466064453125 165 142.03271484375 123.7664794921875Q154.599365234375 82.532958984375 179.332763671875 62.1661376953125Q204.066162109375 41.79931640625 241.866455078125 41.79931640625Q270.066650390625 41.79931640625 299.166748046875 54.3660888671875Q328.266845703125 66.932861328125 355.06689453125 93.0662841796875Q381.866943359375 119.19970703125 403.600341796875 161.133056640625L438.13330078125 141.599853515625Q410.13330078125 88.7333984375 377.933349609375 54.666748046875Q345.7333984375 20.60009765625 307.7333984375 4.800048828125Q269.7333984375 -11 224.199951171875 -11Q129.39990234375 -11.066650390625 83.800048828125 48.0667724609375Q38.2001953125 107.2001953125 38.2001953125 205.13330078125Q38.2001953125 262.466796875 53.2001953125 317.33349609375Q68.2001953125 372.2001953125 98.2335205078125 415.8668212890625Q128.266845703125 459.533447265625 174.400146484375 485.2667236328125Q220.533447265625 511 281.86669921875 511ZM268.066650390625 474.8671875Q222.866455078125 474.8671875 193.9329833984375 444.333740234375Q164.99951171875 413.80029296875 149.7994384765625 365.6334228515625Q134.599365234375 317.466552734375 130.599365234375 264.599609375Q183.666015625 271.799560546875 230.599609375 289.73291015625Q277.533203125 307.666259765625 307.4334716796875 335.7330322265625Q337.333740234375 363.7998046875 337.26708984375 400.86669921875Q337.200439453125 432.400146484375 319.9337158203125 453.6336669921875Q302.6669921875 474.8671875 268.066650390625 474.8671875Z"/><path transform="translate(7850.00,0)" d="M215.932861328125 755Q212.932861328125 729.60009765625 207.566162109375 698.7000732421875Q202.199462890625 667.800048828125 197.7994384765625 638.0Q193.3994140625 608.199951171875 190.3994140625 585Q184.066162109375 539.40087890625 177.932861328125 484.701171875Q171.799560546875 430.00146484375 165.8328857421875 372.9013671875Q159.8662109375 315.80126953125 155.432861328125 262.13427734375Q150.99951171875 208.46728515625 148.0994873046875 164.4669189453125Q145.199462890625 120.466552734375 145.199462890625 92.3330078125Q145.199462890625 73.399658203125 149.2327880859375 57.6328125Q153.26611328125 41.865966796875 171.3330078125 41.865966796875Q187.999755859375 41.865966796875 207.9332275390625 63.0660400390625Q227.86669921875 84.26611328125 242.7333984375 137.666259765625L272.46630859375 130.06640625Q269.266357421875 112.533203125 259.633056640625 88.2999267578125Q249.999755859375 64.066650390625 233.866455078125 41.5Q217.733154296875 18.933349609375 194.966552734375 3.9666748046875Q172.199951171875 -11 141.800048828125 -11Q101.13330078125 -11 81.60009765625 9.5999755859375Q62.06689453125 30.199951171875 61.133544921875 70.999755859375Q60.2001953125 96.73291015625 63.633544921875 145.3330078125Q67.06689453125 193.93310546875 72.4669189453125 255.4666748046875Q77.866943359375 317.000244140625 84.7669677734375 384.300537109375Q91.6669921875 451.600830078125 99.53369140625 515.734375Q107.400390625 579.867919921875 114.333740234375 632.734619140625Q119.1337890625 659.26806640625 120.76708984375 668.901123046875Q122.400390625 678.5341796875 123.600341796875 689.333984375Q105.733642578125 688.333984375 87.967041015625 687.3673095703125Q70.200439453125 686.400634765625 52.6669921875 685.400634765625L57.600341796875 727.800048828125Q101.733642578125 727.800048828125 126.6668701171875 731.86669921875Q151.60009765625 735.933349609375 164.933349609375 742.0Q178.2666015625 748.066650390625 186.199951171875 755Z"/><path transform="translate(8164.00,0)" d="M215.932861328125 755Q212.932861328125 729.60009765625 207.566162109375 698.7000732421875Q202.199462890625 667.800048828125 197.7994384765625 638.0Q193.3994140625 608.199951171875 190.3994140625 585Q184.066162109375 539.40087890625 177.932861328125 484.701171875Q171.799560546875 430.00146484375 165.8328857421875 372.9013671875Q159.8662109375 315.80126953125 155.432861328125 262.13427734375Q150.99951171875 208.46728515625 148.0994873046875 164.4669189453125Q145.199462890625 120.466552734375 145.199462890625 92.3330078125Q145.199462890625 73.399658203125 149.2327880859375 57.6328125Q153.26611328125 41.865966796875 171.3330078125 41.865966796875Q187.999755859375 41.865966796875 207.9332275390625 63.0660400390625Q227.86669921875 84.26611328125 242.7333984375 137.666259765625L272.46630859375 130.06640625Q269.266357421875 112.533203125 259.633056640625 88.2999267578125Q249.999755859375 64.066650390625 233.866455078125 41.5Q217.733154296875 18.933349609375 194.966552734375 3.9666748046875Q172.199951171875 -11 141.800048828125 -11Q101.13330078125 -11 81.60009765625 9.5999755859375Q62.06689453125 30.199951171875 61.133544921875 70.999755859375Q60.2001953125 96.73291015625 63.633544921875 145.3330078125Q67.06689453125 193.93310546875 72.4669189453125 255.4666748046875Q77.866943359375 317.000244140625 84.7669677734375 384.300537109375Q91.6669921875 451.600830078125 99.53369140625 515.734375Q107.400390625 579.867919921875 114.333740234375 632.734619140625Q119.1337890625 659.26806640625 120.76708984375 668.901123046875Q122.400390625 678.5341796875 123.600341796875 689.333984375Q105.733642578125 688.333984375 87.967041015625 687.3673095703125Q70.200439453125 686.400634765625 52.6669921875 685.400634765625L57.600341796875 727.800048828125Q101.733642578125 727.800048828125 126.6668701171875 731.86669921875Q151.60009765625 735.933349609375 164.933349609375 742.0Q178.2666015625 748.066650390625 186.199951171875 755Z"/><path transform="translate(8478.00,0)" d="M190.66650390625 -11Q150.13330078125 -11 112.9000244140625 1.5999755859375Q75.666748046875 14.199951171875 52.533447265625 38.3665771484375Q29.400146484375 62.533203125 29.400146484375 96.599853515625Q29.400146484375 119.19970703125 42.300048828125 133.099609375Q55.199951171875 146.99951171875 73.7998046875 146.99951171875Q94.266357421875 146.99951171875 105.1995849609375 133.666259765625Q116.1328125 120.3330078125 116.1328125 103.66650390625Q116.1328125 96.66650390625 114.1661376953125 88.6998291015625Q112.199462890625 80.733154296875 107.332763671875 72.733154296875Q115.1328125 51.532958984375 138.9661865234375 39.73291015625Q162.799560546875 27.932861328125 188.999755859375 27.932861328125Q242.333251953125 27.932861328125 268.7000732421875 52.532958984375Q295.06689453125 77.133056640625 295.06689453125 120.7333984375Q295.06689453125 147.2001953125 276.3668212890625 167.7669677734375Q257.666748046875 188.333740234375 229.066650390625 206.5338134765625Q200.466552734375 224.73388671875 169.7998046875 242.533935546875Q139.60009765625 261.1337890625 112.8001708984375 280.400390625Q86.000244140625 299.6669921875 69.633544921875 322.8336181640625Q53.266845703125 346.000244140625 53.266845703125 375.400146484375Q53.266845703125 412.266845703125 75.266845703125 442.9334716796875Q97.266845703125 473.60009765625 136.5001220703125 492.300048828125Q175.7333984375 511 227.39990234375 511Q265.533203125 511 299.366455078125 498.933349609375Q333.19970703125 486.86669921875 354.96630859375 464.7000732421875Q376.73291015625 442.533447265625 376.73291015625 412.2001953125Q376.73291015625 390.866943359375 364.399658203125 377.8670654296875Q352.06640625 364.8671875 333.333251953125 364.8671875Q314.7333984375 364.8671875 303.3668212890625 377.3004150390625Q292.000244140625 389.733642578125 292.000244140625 406.266845703125Q292.000244140625 414.266845703125 293.9669189453125 421.7335205078125Q295.93359375 429.2001953125 300.80029296875 437.133544921875Q295.600341796875 453.733642578125 276.30029296875 464.76708984375Q257.000244140625 475.800537109375 224.333251953125 475.800537109375Q202.866455078125 475.800537109375 182.2330322265625 466.067138671875Q161.599609375 456.333740234375 147.799560546875 439.233642578125Q133.99951171875 422.133544921875 133.99951171875 398.60009765625Q133.99951171875 379.933349609375 145.166259765625 364.2999267578125Q156.3330078125 348.66650390625 175.399658203125 334.6998291015625Q194.46630859375 320.733154296875 217.666015625 306.066650390625Q253.466064453125 285.199951171875 291.2327880859375 261.7999267578125Q328.99951171875 238.39990234375 354.3662109375 208.4332275390625Q379.73291015625 178.466552734375 379.73291015625 135.533203125Q379.73291015625 93.333251953125 355.9996337890625 60.199951171875Q332.266357421875 27.066650390625 289.5330810546875 8.0333251953125Q246.7998046875 -11 190.66650390625 -11Z"/><path transform="translate(8937.00,0)" d="M105 111.99951171875Q129.466552734375 111.99951171875 144.7664794921875 93.1995849609375Q160.06640625 74.399658203125 158.06640625 47.999755859375Q157.06640625 20.66650390625 138.866455078125 2.333251953125Q120.66650390625 -16 97.066650390625 -16Q73.400146484375 -16 57.2001953125 2.333251953125Q41.000244140625 20.66650390625 42.000244140625 47.999755859375Q44.000244140625 74.399658203125 62.8001708984375 93.1995849609375Q81.60009765625 111.99951171875 105 111.99951171875Z"/></g></g></svg></svg>