<svg xmlns="http://www.w3.org/2000/svg" xmlns:xlink="http://www.w3.org/1999/xlink" role="img" aria-label="Tablinum" viewBox="47.36 44.16 305.28 305.28" preserveAspectRatio="xMidYMid meet"><path fill="#9a5b2c" d="M72.02 189.54 A128.00 128.00 0 0 1 76.52 158.30 L91.95 162.51 A112.00 112.00 0 0 0 88.02 189.85 Z"/><path fill="#9a5b2c" d="M77.90 153.59 A128.00 128.00 0 0 1 91.01 124.88 L104.63 133.27 A112.00 112.00 0 0 0 93.16 158.39 Z"/><path fill="#9a5b2c" d="M93.67 120.74 A128.00 128.00 0 0 1 114.34 96.89 L125.04 108.78 A112.00 112.00 0 0 0 106.96 129.65 Z"/><path fill="#9a5b2c" d="M118.05 93.67 A128.00 128.00 0 0 1 144.60 76.61 L151.53 91.03 A112.00 112.00 0 0 0 128.29 105.96 Z"/><path fill="#9a5b2c" d="M149.07 74.57 A128.00 128.00 0 0 1 179.35 65.68 L181.94 81.47 A112.00 112.00 0 0 0 155.44 89.25 Z"/><path fill="#9a5b2c" d="M184.22 64.98 A128.00 128.00 0 0 1 215.78 64.98 L213.81 80.85 A112.00 112.00 0 0 0 186.19 80.85 Z"/><path fill="#9a5b2c" d="M220.65 65.68 A128.00 128.00 0 0 1 250.93 74.57 L244.56 89.25 A112.00 112.00 0 0 0 218.06 81.47 Z"/><path fill="#9a5b2c" d="M255.40 76.61 A128.00 128.00 0 0 1 281.95 93.67 L271.71 105.96 A112.00 112.00 0 0 0 248.47 91.03 Z"/><path fill="#9a5b2c" d="M285.66 96.89 A128.00 128.00 0 0 1 306.33 120.74 L293.04 129.65 A112.00 112.00 0 0 0 274.96 108.78 Z"/><path fill="#9a5b2c" d="M308.99 124.88 A128.00 128.00 0 0 1 322.10 153.59 L306.84 158.39 A112.00 112.00 0 0 0 295.37 133.27 Z"/><path fill="#9a5b2c" d="M323.48 158.30 A128.00 128.00 0 0 1 327.98 189.54 L311.98 189.85 A112.00 112.00 0 0 0 308.05 162.51 Z"/><rect fill="#9a5b2c" x="72.00" y="192.00" width="16.00" height="112.00" rx="0.00"/><rect fill="#9a5b2c" x="312.00" y="192.00" width="16.00" height="112.00" rx="0.00"/><rect fill="#9a5b2c" x="198.40" y="145.60" width="3.20" height="92.80" rx="1.60"/><path fill="#9a5b2c" d="M186.88 145.60 A13.12 13.12 0 1 0 213.12 145.60 A13.12 13.12 0 1 0 186.88 145.60 Z M193.28 145.60 A6.72 6.72 0 1 1 206.72 145.60 A6.72 6.72 0 1 1 193.28 145.60 Z"/><path fill="#9a5b2c" d="M186.88 192.00 A13.12 13.12 0 1 0 213.12 192.00 A13.12 13.12 0 1 0 186.88 192.00 Z M193.28 192.00 A6.72 6.72 0 1 1 206.72 192.00 A6.72 6.72 0 1 1 193.28 192.00 Z"/><circle fill="#9a5b2c" cx="200.00" cy="238.40" r="13.12"/><rect fill="#9a5b2c" x="65.60" y="315.20" width="268.80" height="5.44" rx="1.81"/><rect fill="#9a5b2c" x="56.00" y="324.16" width="288.00" height="5.44" rx="1.81"/></svg></svg>